<svg width="256" height="256" viewBox="0 0 256 256" fill="none" xmlns="http://www.w3.org/2000/svg">
<path fill-rule="evenodd" clip-rule="evenodd" d="M36.3928 77.7911C40.0071 43 76.5071 6.50354 128.501 6.50354C180.496 6.50354 216.998 43 220.613 77.7911C222.879 99.6084 218.863 123.927 207.113 152.129C206.565 153.443 206.079 154.764 205.652 156.087C206.36 156.041 207.057 155.934 207.742 155.763C224.118 151.678 230.501 171.463 211.013 177.002C214.762 178.033 218.188 178.532 220.278 178.03C240.94 173.072 247.828 199.389 220.278 204.475C220.166 204.495 220.053 204.515 219.941 204.534C224.473 206.993 229.701 207.926 235.332 206.8C258.834 202.099 266.668 239.047 235.332 243.868C219.882 246.245 203.906 237.072 186.645 227.162C168.898 216.973 149.792 206.004 128.501 206.004C107.211 206.004 88.105 216.973 70.358 227.162C53.0966 237.072 37.1207 246.245 21.6704 243.868C-9.6648 239.047 -1.83099 202.099 21.6704 206.8C27.2997 207.925 32.5257 206.993 37.057 204.537C36.9412 204.517 36.8254 204.497 36.7097 204.476C9.1598 199.39 16.0473 173.073 36.7097 178.031C38.6122 178.488 41.6222 178.115 44.9758 177.267C24.2822 172.128 30.6032 151.61 47.2513 155.763C48.5746 156.093 49.9458 156.185 51.3454 156.061C50.9203 154.747 50.4368 153.435 49.8928 152.129C38.1421 123.927 34.1263 99.6084 36.3928 77.7911Z" fill="#818CF8"/>
<path fill-rule="evenodd" clip-rule="evenodd" d="M110 112.371C110 121.965 102.837 129.743 94 129.743C85.1634 129.743 78 121.965 78 112.371C78 102.777 85.1634 95 94 95C102.837 95 110 102.777 110 112.371ZM177 112.371C177 121.965 169.837 129.743 161 129.743C152.163 129.743 145 121.965 145 112.371C145 102.777 152.163 95 161 95C169.837 95 177 102.777 177 112.371ZM110 147H145C148.093 147 150.383 149.523 149.327 152.43C147.031 158.756 141.171 168 128.2 168C115.182 168 108.61 158.689 105.924 152.362C104.715 149.515 106.907 147 110 147Z" fill="#111111"/>
</svg>
