<svg width="256" height="256" viewBox="0 0 256 256" fill="none" xmlns="http://www.w3.org/2000/svg">
<path d="M31.7207 78.6161C35.4987 42.2006 73.6514 4 128 4C182.349 4 220.504 42.2006 224.282 78.6161C226.651 101.452 222.454 126.907 210.171 156.425C208.707 159.943 207.573 163.654 206.753 167.453C208.521 167.66 210.252 167.615 211.912 167.283C229.873 163.69 236.386 182.029 212.437 185.713C210.033 186.083 207.606 186.083 205.152 185.784C205.182 186.66 205.228 187.532 205.289 188.399C212.347 192.282 221.776 196.141 234.675 189.908C252.412 181.336 266.511 209.835 231.05 214.21C224.883 214.971 218.609 214.413 212.208 212.973C217.081 221.181 224.306 225.936 233.397 224.115C257.962 219.195 266.151 247.401 233.397 252.447C216.954 254.98 200.205 242.08 182.709 228.604C165.353 215.236 147.26 201.301 128 201.301C108.74 201.301 90.6474 215.236 73.2913 228.604C55.7948 242.08 39.0464 254.98 22.6034 252.447C-10.1506 247.401 -1.96212 219.195 22.6034 224.115C31.6941 225.936 38.9197 221.181 43.7932 212.973C37.3913 214.413 31.117 214.971 24.95 214.21C-10.5113 209.835 3.58808 181.336 21.325 189.908C34.2249 196.142 43.6547 192.281 50.7133 188.398C50.7741 187.531 50.82 186.659 50.8507 185.784C48.3957 186.083 45.9675 186.083 43.5634 185.713C19.6144 182.029 26.1267 163.69 44.0884 167.283C45.7488 167.615 47.4808 167.66 49.2499 167.452C48.4297 163.653 47.2958 159.943 45.832 156.425C33.5493 126.907 29.3516 101.452 31.7207 78.6161Z" fill="#818CF8"/>
<path d="M110.653 114.354C110.653 124.144 103.343 132.08 94.3265 132.08C85.3097 132.08 78 124.144 78 114.354C78 104.565 85.3097 96.6285 94.3265 96.6285C103.343 96.6285 110.653 104.565 110.653 114.354Z" fill="#111111"/>
<path d="M178 114.354C178 124.144 170.69 132.08 161.673 132.08C152.657 132.08 145.347 124.144 145.347 114.354C145.347 104.565 152.657 96.6285 161.673 96.6285C170.69 96.6285 178 104.565 178 114.354Z" fill="#111111"/>
<path d="M109.372 150.204H146.628C149.866 150.204 152.196 152.84 150.957 155.83C148.282 162.282 141.691 171.632 128 171.632C114.31 171.632 107.718 162.282 105.043 155.83C103.804 152.84 106.135 150.204 109.372 150.204Z" fill="#111111"/>
</svg>
